<svg width="364" height="341" viewBox="0 0 364 341" fill="none" xmlns="http://www.w3.org/2000/svg">
<rect width="364" height="341" rx="30" fill="black"/>
<path d="M73.193 64.3443C82.6795 62.2821 105.037 69.9984 114.275 73.7942C130.882 80.6266 145.293 90.1331 157.926 102.087C180.024 99.719 202.801 103.186 223.109 111.344C226.822 112.84 238.822 119.876 240.69 120.16C242.977 120.511 248.818 118.743 251.818 118.641C267.372 118.086 284.183 118.811 299.171 122.777C303.858 124.012 317.318 128.046 317.952 133.054C318.937 140.759 304.526 162.491 299.228 169.154C296.239 172.927 285.994 182.026 286.153 185.685C287.138 207.882 275.546 219.462 257.467 232.878C231.679 252.016 198.465 265.352 168.058 277C154.689 270.315 141.693 262.791 129.263 254.724C107.505 240.594 65.4838 210.409 62.2688 184.768C60.3783 169.743 68.7893 154.718 77.1891 142.459C73.3515 134.278 70.1931 125.689 68.2799 116.93C65.3366 103.515 63.2876 85.1249 67.329 71.9019C68.2346 68.956 69.5818 65.1035 73.193 64.3217V64.3443ZM175.133 225.116C162.16 192.824 135.761 165.403 106.43 144.634C101.154 170.185 99.4224 205.945 128.052 220.369C142.825 227.813 158.911 227.36 175.133 225.105V225.116ZM257.025 204.789C257.727 199.962 257.025 192.665 257.025 187.476C257.025 184.394 246.509 189.232 244.743 190.036C227.026 198.036 209.604 213.004 197.706 227.281C218.796 233.275 253.392 229.592 257.014 204.789H257.025Z" fill="white"/>
</svg>
